<svg xmlns="http://www.w3.org/2000/svg" xmlns:xlink="http://www.w3.org/1999/xlink" version="1.1" data-diagram-type="ACTIVITY" style="width:1831px;height:1346px;background:#FFFFFF;" width="1831px" height="1346px" viewBox="0 0 1831 1346" zoomAndPan="magnify" preserveAspectRatio="none" contentStyleType="text/css"><?plantuml 1.2026.8beta1?><defs/><g font-family="sans-serif" lengthAdjust="spacing"><rect x="20" y="17.745" width="1784.624" height="20.953" fill="none" style="stroke:none;"/><ellipse cx="379.653" cy="53.698" rx="10" ry="10" fill="#222" style="stroke:#222;stroke-width:1;"/><rect x="251.27" y="83.698" width="256.766" height="33.969" fill="#74C0FC" style="stroke:#1C7ED6;stroke-width:0.5;" rx="12.5" ry="12.5"/><text x="261.27" y="104.837" fill="#000" font-size="12" textLength="236.766">Upload audio file or enter YouTube URL</text><rect x="74.929" y="681.354" width="286.326" height="33.969" fill="#74C0FC" style="stroke:#1C7ED6;stroke-width:0.5;" rx="12.5" ry="12.5"/><text x="84.929" y="702.493" fill="#000" font-size="12" textLength="266.326">Listen and audit detected chord progression</text><rect x="114.184" y="797.292" width="207.816" height="33.969" fill="#74C0FC" style="stroke:#1C7ED6;stroke-width:0.5;" rx="12.5" ry="12.5"/><text x="124.184" y="818.431" fill="#000" font-size="12" textLength="187.816">Open Edit Marker on target bar</text><rect x="81.418" y="851.261" width="273.348" height="33.969" fill="#74C0FC" style="stroke:#1C7ED6;stroke-width:0.5;" rx="12.5" ry="12.5"/><text x="91.418" y="872.399" fill="#000" font-size="12" textLength="253.348">Input modified root, bass, or chord quality</text><polygon points="218.092,735.323,307.91,754.308,218.092,773.292,128.273,754.308" fill="#E7F5FF" style="stroke:#1C7ED6;stroke-width:0.5;stroke-linejoin:miter;stroke-miterlimit:10;"/><text x="222.092" y="783.502" fill="#000" font-size="11" textLength="19.218">Yes</text><text x="140.273" y="758.462" fill="#000" font-size="12" textLength="155.637">Chord correction needed?</text><text x="307.91" y="749.729" fill="#000" font-size="11" textLength="14.958">No</text><rect x="26" y="1071.175" width="384.184" height="33.969" fill="#74C0FC" style="stroke:#1C7ED6;stroke-width:0.5;" rx="12.5" ry="12.5"/><text x="36" y="1092.313" fill="#000" font-size="12" textLength="364.184">Practice with A/B loop, dynamic metronome, and speed shift</text><rect x="92.686" y="1125.144" width="250.813" height="33.969" fill="#74C0FC" style="stroke:#1C7ED6;stroke-width:0.5;" rx="12.5" ry="12.5"/><text x="102.686" y="1146.282" fill="#000" font-size="12" textLength="230.813">Save custom chart to personal playlist</text><line x1="20" y1="17.745" x2="20" y2="1325.05" style="stroke:#000;stroke-width:1.5;"/><rect x="740.654" y="137.667" width="261.828" height="33.969" fill="#74C0FC" style="stroke:#1C7ED6;stroke-width:0.5;" rx="12.5" ry="12.5"/><text x="750.654" y="158.806" fill="#000" font-size="12" textLength="241.828">Validate audio source format &amp; duration</text><polygon points="871.568,191.636,948.423,210.62,871.568,229.604,794.714,210.62" fill="#E7F5FF" style="stroke:#1C7ED6;stroke-width:0.5;stroke-linejoin:miter;stroke-miterlimit:10;"/><text x="806.714" y="214.774" fill="#000" font-size="12" textLength="129.709">Is audio source valid?</text><text x="775.496" y="201.042" fill="#000" font-size="11" textLength="19.218">Yes</text><text x="948.423" y="206.042" fill="#000" font-size="11" textLength="14.958">No</text><rect x="574.986" y="519.448" width="270.043" height="33.969" fill="#74C0FC" style="stroke:#1C7ED6;stroke-width:0.5;" rx="12.5" ry="12.5"/><text x="584.986" y="540.587" fill="#000" font-size="12" textLength="250.043">Fetch metadata and chord event timeline</text><rect x="518.036" y="573.417" width="383.943" height="33.969" fill="#74C0FC" style="stroke:#1C7ED6;stroke-width:0.5;" rx="12.5" ry="12.5"/><text x="528.036" y="594.556" fill="#000" font-size="12" textLength="363.943">Harmonic Engine computes Roman numerals &amp; scale modes</text><rect x="537.574" y="627.386" width="344.867" height="33.969" fill="#74C0FC" style="stroke:#1C7ED6;stroke-width:0.5;" rx="12.5" ry="12.5"/><text x="547.574" y="648.524" fill="#000" font-size="12" textLength="324.867">Render interactive Smart Grid synced with Web Audio</text><rect x="541.488" y="919.237" width="337.039" height="33.969" fill="#74C0FC" style="stroke:#1C7ED6;stroke-width:0.5;" rx="12.5" ry="12.5"/><text x="551.488" y="940.376" fill="#000" font-size="12" textLength="317.039">Recalculate Roman degree and scale mode instantly</text><rect x="604.564" y="973.206" width="210.887" height="33.969" fill="#74C0FC" style="stroke:#1C7ED6;stroke-width:0.5;" rx="12.5" ry="12.5"/><text x="614.564" y="994.345" fill="#000" font-size="12" textLength="190.887">Flag chord event as user-edited</text><rect x="605.179" y="1233.081" width="209.656" height="33.969" fill="#74C0FC" style="stroke:#1C7ED6;stroke-width:0.5;" rx="12.5" ry="12.5"/><text x="615.179" y="1254.22" fill="#000" font-size="12" textLength="189.656">Display sync confirmation toast</text><ellipse cx="710.007" cy="1298.05" rx="11" ry="11" fill="none" style="stroke:#222;stroke-width:1;"/><ellipse cx="710.007" cy="1298.05" rx="6" ry="6" fill="#222" style="stroke:#222;stroke-width:1;"/><rect x="922.099" y="249.604" width="222.061" height="33.969" fill="#74C0FC" style="stroke:#1C7ED6;stroke-width:0.5;" rx="12.5" ry="12.5"/><text x="932.099" y="270.743" fill="#000" font-size="12" textLength="202.061">Display invalid audio source error</text><ellipse cx="1033.129" cy="314.573" rx="11" ry="11" fill="none" style="stroke:#222;stroke-width:1;"/><ellipse cx="1033.129" cy="314.573" rx="6" ry="6" fill="#222" style="stroke:#222;stroke-width:1;"/><line x1="512.036" y1="17.745" x2="512.036" y2="1325.05" style="stroke:#000;stroke-width:1.5;"/><rect x="1154.16" y="249.604" width="295.561" height="33.969" fill="#74C0FC" style="stroke:#1C7ED6;stroke-width:0.5;" rx="12.5" ry="12.5"/><text x="1164.16" y="270.743" fill="#000" font-size="12" textLength="275.561">Generate Job ID and enqueue processing task</text><rect x="1159.656" y="1179.112" width="284.568" height="33.969" fill="#74C0FC" style="stroke:#1C7ED6;stroke-width:0.5;" rx="12.5" ry="12.5"/><text x="1169.656" y="1200.251" fill="#000" font-size="12" textLength="264.568">Persist custom chart into PostgreSQL JSONB</text><line x1="1148.16" y1="17.745" x2="1148.16" y2="1325.05" style="stroke:#000;stroke-width:1.5;"/><rect x="1492.799" y="303.573" width="272.885" height="33.969" fill="#74C0FC" style="stroke:#1C7ED6;stroke-width:0.5;" rx="12.5" ry="12.5"/><text x="1502.799" y="324.712" fill="#000" font-size="12" textLength="252.885">Separate instrument stems using Demucs</text><rect x="1459.72" y="357.542" width="339.043" height="33.969" fill="#74C0FC" style="stroke:#1C7ED6;stroke-width:0.5;" rx="12.5" ry="12.5"/><text x="1469.72" y="378.681" fill="#000" font-size="12" textLength="319.043">Track tempo and downbeat positions using Madmom</text><rect x="1464.481" y="411.511" width="329.521" height="33.969" fill="#74C0FC" style="stroke:#1C7ED6;stroke-width:0.5;" rx="12.5" ry="12.5"/><text x="1474.481" y="432.649" fill="#000" font-size="12" textLength="309.521">Recognize chord progression sequence using MERT</text><rect x="1507.922" y="465.479" width="242.639" height="33.969" fill="#74C0FC" style="stroke:#1C7ED6;stroke-width:0.5;" rx="12.5" ry="12.5"/><text x="1517.922" y="486.618" fill="#000" font-size="12" textLength="222.639">Assemble event-based timeline JSON</text><line x1="1453.72" y1="17.745" x2="1453.72" y2="1325.05" style="stroke:#000;stroke-width:1.5;"/><line x1="1802.763" y1="17.745" x2="1802.763" y2="1325.05" style="stroke:#000;stroke-width:1.5;"/><line x1="379.653" y1="63.698" x2="379.653" y2="83.698" style="stroke:#2B2D42;stroke-width:1;"/><polygon points="375.653,73.698,379.653,83.698,383.653,73.698,379.653,77.698" fill="#2B2D42" style="stroke:#2B2D42;stroke-width:1;stroke-linejoin:miter;stroke-miterlimit:10;"/><line x1="218.092" y1="831.261" x2="218.092" y2="851.261" style="stroke:#2B2D42;stroke-width:1;"/><polygon points="214.092,841.261,218.092,851.261,222.092,841.261,218.092,845.261" fill="#2B2D42" style="stroke:#2B2D42;stroke-width:1;stroke-linejoin:miter;stroke-miterlimit:10;"/><line x1="218.092" y1="773.292" x2="218.092" y2="797.292" style="stroke:#2B2D42;stroke-width:1;"/><polygon points="214.092,787.292,218.092,797.292,222.092,787.292,218.092,791.292" fill="#2B2D42" style="stroke:#2B2D42;stroke-width:1;stroke-linejoin:miter;stroke-miterlimit:10;"/><line x1="128.273" y1="754.308" x2="39.572" y2="754.308" style="stroke:#2B2D42;stroke-width:1;"/><polygon points="35.572,889.237,39.572,899.237,43.572,889.237,39.572,893.237" fill="#2B2D42" style="stroke:#2B2D42;stroke-width:1;stroke-linejoin:miter;stroke-miterlimit:10;"/><line x1="39.572" y1="754.308" x2="39.572" y2="1071.175" style="stroke:#2B2D42;stroke-width:1;"/><polygon points="35.572,1061.175,39.572,1071.175,43.572,1061.175,39.572,1065.175" fill="#2B2D42" style="stroke:#2B2D42;stroke-width:1;stroke-linejoin:miter;stroke-miterlimit:10;"/><line x1="218.092" y1="715.323" x2="218.092" y2="735.323" style="stroke:#2B2D42;stroke-width:1;"/><polygon points="214.092,725.323,218.092,735.323,222.092,725.323,218.092,729.323" fill="#2B2D42" style="stroke:#2B2D42;stroke-width:1;stroke-linejoin:miter;stroke-miterlimit:10;"/><polygon points="214.092,1061.175,218.092,1071.175,222.092,1061.175,218.092,1065.175" fill="#2B2D42" style="stroke:#2B2D42;stroke-width:1;stroke-linejoin:miter;stroke-miterlimit:10;"/><line x1="218.092" y1="1105.144" x2="218.092" y2="1125.144" style="stroke:#2B2D42;stroke-width:1;"/><polygon points="214.092,1115.144,218.092,1125.144,222.092,1115.144,218.092,1119.144" fill="#2B2D42" style="stroke:#2B2D42;stroke-width:1;stroke-linejoin:miter;stroke-miterlimit:10;"/><line x1="710.007" y1="553.417" x2="710.007" y2="573.417" style="stroke:#2B2D42;stroke-width:1;"/><polygon points="706.007,563.417,710.007,573.417,714.007,563.417,710.007,567.417" fill="#2B2D42" style="stroke:#2B2D42;stroke-width:1;stroke-linejoin:miter;stroke-miterlimit:10;"/><line x1="710.007" y1="607.386" x2="710.007" y2="627.386" style="stroke:#2B2D42;stroke-width:1;"/><polygon points="706.007,617.386,710.007,627.386,714.007,617.386,710.007,621.386" fill="#2B2D42" style="stroke:#2B2D42;stroke-width:1;stroke-linejoin:miter;stroke-miterlimit:10;"/><line x1="710.007" y1="953.206" x2="710.007" y2="973.206" style="stroke:#2B2D42;stroke-width:1;"/><polygon points="706.007,963.206,710.007,973.206,714.007,963.206,710.007,967.206" fill="#2B2D42" style="stroke:#2B2D42;stroke-width:1;stroke-linejoin:miter;stroke-miterlimit:10;"/><line x1="710.007" y1="1267.05" x2="710.007" y2="1287.05" style="stroke:#2B2D42;stroke-width:1;"/><polygon points="706.007,1277.05,710.007,1287.05,714.007,1277.05,710.007,1281.05" fill="#2B2D42" style="stroke:#2B2D42;stroke-width:1;stroke-linejoin:miter;stroke-miterlimit:10;"/><line x1="1033.129" y1="283.573" x2="1033.129" y2="303.573" style="stroke:#2B2D42;stroke-width:1;"/><polygon points="1029.129,293.573,1033.129,303.573,1037.129,293.573,1033.129,297.573" fill="#2B2D42" style="stroke:#2B2D42;stroke-width:1;stroke-linejoin:miter;stroke-miterlimit:10;"/><line x1="948.423" y1="210.62" x2="1033.129" y2="210.62" style="stroke:#2B2D42;stroke-width:1;"/><line x1="1033.129" y1="210.62" x2="1033.129" y2="249.604" style="stroke:#2B2D42;stroke-width:1;"/><polygon points="1029.129,239.604,1033.129,249.604,1037.129,239.604,1033.129,243.604" fill="#2B2D42" style="stroke:#2B2D42;stroke-width:1;stroke-linejoin:miter;stroke-miterlimit:10;"/><line x1="871.568" y1="171.636" x2="871.568" y2="191.636" style="stroke:#2B2D42;stroke-width:1;"/><polygon points="867.568,181.636,871.568,191.636,875.568,181.636,871.568,185.636" fill="#2B2D42" style="stroke:#2B2D42;stroke-width:1;stroke-linejoin:miter;stroke-miterlimit:10;"/><line x1="1629.242" y1="337.542" x2="1629.242" y2="357.542" style="stroke:#2B2D42;stroke-width:1;"/><polygon points="1625.242,347.542,1629.242,357.542,1633.242,347.542,1629.242,351.542" fill="#2B2D42" style="stroke:#2B2D42;stroke-width:1;stroke-linejoin:miter;stroke-miterlimit:10;"/><line x1="1629.242" y1="391.511" x2="1629.242" y2="411.511" style="stroke:#2B2D42;stroke-width:1;"/><polygon points="1625.242,401.511,1629.242,411.511,1633.242,401.511,1629.242,405.511" fill="#2B2D42" style="stroke:#2B2D42;stroke-width:1;stroke-linejoin:miter;stroke-miterlimit:10;"/><line x1="1629.242" y1="445.479" x2="1629.242" y2="465.479" style="stroke:#2B2D42;stroke-width:1;"/><polygon points="1625.242,455.479,1629.242,465.479,1633.242,455.479,1629.242,459.479" fill="#2B2D42" style="stroke:#2B2D42;stroke-width:1;stroke-linejoin:miter;stroke-miterlimit:10;"/><line x1="379.653" y1="117.667" x2="379.653" y2="122.667" style="stroke:#2B2D42;stroke-width:1;"/><line x1="379.653" y1="122.667" x2="871.568" y2="122.667" style="stroke:#2B2D42;stroke-width:1;"/><line x1="871.568" y1="122.667" x2="871.568" y2="137.667" style="stroke:#2B2D42;stroke-width:1;"/><polygon points="867.568,127.667,871.568,137.667,875.568,127.667,871.568,131.667" fill="#2B2D42" style="stroke:#2B2D42;stroke-width:1;stroke-linejoin:miter;stroke-miterlimit:10;"/><line x1="1301.94" y1="283.573" x2="1301.94" y2="288.573" style="stroke:#2B2D42;stroke-width:1;"/><line x1="1301.94" y1="288.573" x2="1629.242" y2="288.573" style="stroke:#2B2D42;stroke-width:1;"/><line x1="1629.242" y1="288.573" x2="1629.242" y2="303.573" style="stroke:#2B2D42;stroke-width:1;"/><polygon points="1625.242,293.573,1629.242,303.573,1633.242,293.573,1629.242,297.573" fill="#2B2D42" style="stroke:#2B2D42;stroke-width:1;stroke-linejoin:miter;stroke-miterlimit:10;"/><line x1="1629.242" y1="499.448" x2="1629.242" y2="504.448" style="stroke:#2B2D42;stroke-width:1;"/><line x1="1629.242" y1="504.448" x2="710.007" y2="504.448" style="stroke:#2B2D42;stroke-width:1;"/><line x1="710.007" y1="504.448" x2="710.007" y2="519.448" style="stroke:#2B2D42;stroke-width:1;"/><polygon points="706.007,509.448,710.007,519.448,714.007,509.448,710.007,513.448" fill="#2B2D42" style="stroke:#2B2D42;stroke-width:1;stroke-linejoin:miter;stroke-miterlimit:10;"/><line x1="710.007" y1="661.354" x2="710.007" y2="666.354" style="stroke:#2B2D42;stroke-width:1;"/><line x1="710.007" y1="666.354" x2="218.092" y2="666.354" style="stroke:#2B2D42;stroke-width:1;"/><line x1="218.092" y1="666.354" x2="218.092" y2="681.354" style="stroke:#2B2D42;stroke-width:1;"/><polygon points="214.092,671.354,218.092,681.354,222.092,671.354,218.092,675.354" fill="#2B2D42" style="stroke:#2B2D42;stroke-width:1;stroke-linejoin:miter;stroke-miterlimit:10;"/><line x1="218.092" y1="885.229" x2="218.092" y2="902.729" style="stroke:#2B2D42;stroke-width:1;"/><line x1="218.092" y1="902.729" x2="710.007" y2="902.729" style="stroke:#2B2D42;stroke-width:1;"/><line x1="710.007" y1="902.729" x2="710.007" y2="919.237" style="stroke:#2B2D42;stroke-width:1;"/><polygon points="706.007,909.237,710.007,919.237,714.007,909.237,710.007,913.237" fill="#2B2D42" style="stroke:#2B2D42;stroke-width:1;stroke-linejoin:miter;stroke-miterlimit:10;"/><line x1="710.007" y1="1007.175" x2="710.007" y2="1015.175" style="stroke:#2B2D42;stroke-width:1;"/><line x1="710.007" y1="1015.175" x2="218.092" y2="1015.175" style="stroke:#2B2D42;stroke-width:1;"/><line x1="218.092" y1="1015.175" x2="218.092" y2="1071.175" style="stroke:#2B2D42;stroke-width:1;"/><line x1="218.092" y1="1159.112" x2="218.092" y2="1164.112" style="stroke:#2B2D42;stroke-width:1;"/><line x1="218.092" y1="1164.112" x2="1301.94" y2="1164.112" style="stroke:#2B2D42;stroke-width:1;"/><line x1="1301.94" y1="1164.112" x2="1301.94" y2="1179.112" style="stroke:#2B2D42;stroke-width:1;"/><polygon points="1297.94,1169.112,1301.94,1179.112,1305.94,1169.112,1301.94,1173.112" fill="#2B2D42" style="stroke:#2B2D42;stroke-width:1;stroke-linejoin:miter;stroke-miterlimit:10;"/><line x1="1301.94" y1="1213.081" x2="1301.94" y2="1218.081" style="stroke:#2B2D42;stroke-width:1;"/><line x1="1301.94" y1="1218.081" x2="710.007" y2="1218.081" style="stroke:#2B2D42;stroke-width:1;"/><line x1="710.007" y1="1218.081" x2="710.007" y2="1233.081" style="stroke:#2B2D42;stroke-width:1;"/><polygon points="706.007,1223.081,710.007,1233.081,714.007,1223.081,710.007,1227.081" fill="#2B2D42" style="stroke:#2B2D42;stroke-width:1;stroke-linejoin:miter;stroke-miterlimit:10;"/><line x1="794.714" y1="210.62" x2="782.714" y2="210.62" style="stroke:#2B2D42;stroke-width:1;"/><line x1="782.714" y1="210.62" x2="782.714" y2="239.097" style="stroke:#2B2D42;stroke-width:1;"/><line x1="782.714" y1="239.097" x2="1301.94" y2="239.097" style="stroke:#2B2D42;stroke-width:1;"/><line x1="1301.94" y1="239.097" x2="1301.94" y2="249.604" style="stroke:#2B2D42;stroke-width:1;"/><polygon points="1297.94,239.604,1301.94,249.604,1305.94,239.604,1301.94,243.604" fill="#2B2D42" style="stroke:#2B2D42;stroke-width:1;stroke-linejoin:miter;stroke-miterlimit:10;"/><text x="196.294" y="34.453" fill="#000" font-size="18" textLength="139.447">Musician (User)</text><text x="760.611" y="34.453" fill="#000" font-size="18" textLength="138.973">Frontend Client</text><text x="1229.762" y="34.453" fill="#000" font-size="18" textLength="142.356">Backend Server</text><text x="1545.734" y="34.453" fill="#000" font-size="18" textLength="165.015">AI Pipeline Worker</text><?plantuml-src RLHTJnin47o_Nx5IfGeaga8AHIGFLRwkfO924sZLHyVU91PdxzNh0wMb_xrhN_W8v1uYnRUxCpipPxwnlbP1ET3aZOsM_3IkAWJhsHeSMUNalE37CgMZlRLn1NyBa6UWzCqYKEFDa2eAyERuSBXV3jjt50o6zVd1y7Wy-fZFI_9nVRgVdyVJgVs3SD39__iXqDswh3FeZ0xRupMZLxZZu_AeB3TAji3_UxQ9_CQyyCCgp-iFJuxsZuvVqkqST8uw9o_eVjWkH9aVGIpkpnkssYeFEzUCOVU-u2ZOHVUwhaWPK8sn17ChgaiZ-eW1Vb5prSmGhYTdFPbG1e53Rs1OMIcuBxe_L6MDYhZkPcg2HfXJS2h2Mp1DK6ctNc7di7FAcsMtgVdJBiGb2gbVoBk2aJP845CCjnW4uZDw30dYAytWT0HANgB_tM23K0VIo6pz0gBYcyInVmgNjiRAUeIV56xoZ2aciMFEKmoD4_B04Hr3avj7w1hDlQ9x5GGUv4rD6SZGdP-Xx58JPvSUEiwLSUIaOuAQ5ZvPe9TYNQAq28cJECeeDBrikkuPJwwaey-CRYOouwtmU3TJZ0QYTItdhzEBRzkrBZ7g9JYCIXHNcLuBcUSyJX24Bof8zAo6iL-acPfStKHac90J_xq845J5OX1h9KGS6UIyYvViYKZYVVx24APECWAVWpN0Ard5m9sDI_Y9C-WdBtlRWjKziwAkpnIJun4CHjGHpMkHscWCyx6c4AGiIUSH3Ru8HmfuzwAM_-CqyrmbTq6A9SSBZ31JeTSMdNhPDwrbvrP00r7SazVCUodRBOVVZSGlhjgErtBdEMAkgdHJfUYqsXaKufWtUz8knqhvMAsdTSjABJRCKIat6DwX44VJAx1YX9rlj5i8ffrl5V4oUo3foOhttm-W8ghtmAoyScAk9458ayEzbaujaW4lxJoAbLCbvkc68ycTkamUHe8Q0vDN5TILMbNYKM_R1tSfLV9kirioGN1976NzwVUp7DF1zfoEBAVvEI_fFf_RT1iaKoEfX2bZwssTJw9a4H_cM9ylYisx0-LUNhkTnsKP_mC0?></g></svg>